{
  "accessors": [
    {
      "bufferView": 2,
      "componentType": 5126,
      "count": 1648,
      "max": [
        0.47703999280929565,
        1.0813800096511841,
        0.54923999309539795
      ],
      "min": [
        -0.42004001140594482,
        -1.3368500471115112,
        -0.4018700122833252
      ],
      "type": "VEC3"
    },
    {
      "bufferView": 2,
      "byteOffset": 19776,
      "componentType": 5126,
      "count": 1648,
      "max": [
        0.99975228309631348,
        0.99662971496582031,
        0.99978166818618774
      ],
      "min": [
        -0.99952131509780884,
        -0.99886298179626465,
        -0.99999850988388062
      ],
      "type": "VEC3"
    },
    {
      "bufferView": 3,
      "componentType": 5126,
      "count": 1648,
      "max": [
        0.9918290376663208,
        0.99933743476867676,
        0.99846655130386353,
        1
      ],
      "min": [
        -0.99918615818023682,
        -0.99771565198898315,
        -0.9991379976272583,
        -1
      ],
      "type": "VEC4"
    },
    {
      "bufferView": 1,
      "componentType": 5126,
      "count": 1648,
      "max": [
        0.94001001119613647,
        0.98926001787185669
      ],
      "min": [
        0.035300001502037048,
        0.029980000108480453
      ],
      "type": "VEC2"
    },
    {
      "bufferView": 0,
      "componentType": 5125,
      "count": 8784,
      "max": [
        1647
      ],
      "min": [
        0
      ],
      "type": "SCALAR"
    },
    {
      "bufferView": 2,
      "byteOffset": 39552,
      "componentType": 5126,
      "count": 1531,
      "max": [
        0.44890999794006348,
        1.0467300415039062,
        0.55239999294281006
      ],
      "min": [
        -0.40470999479293823,
        -1.1217499971389771,
        -0.21043999493122101
      ],
      "type": "VEC3"
    },
    {
      "bufferView": 2,
      "byteOffset": 57924,
      "componentType": 5126,
      "count": 1531,
      "max": [
        0.99943798780441284,
        0.99750417470932007,
        0.99929302930831909
      ],
      "min": [
        -0.99998587369918823,
        -0.82075685262680054,
        -0.73035895824432373
      ],
      "type": "VEC3"
    },
    {
      "bufferView": 3,
      "byteOffset": 26368,
      "componentType": 5126,
      "count": 1531,
      "max": [
        0.89741730690002441,
        0.71284979581832886,
        0.95404607057571411,
        1
      ],
      "min": [
        -0.99992877244949341,
        -0.99693447351455688,
        -0.97386687994003296,
        -1
      ],
      "type": "VEC4"
    },
    {
      "bufferView": 1,
      "byteOffset": 13184,
      "componentType": 5126,
      "count": 1531,
      "max": [
        0.94010001420974731,
        0.98926001787185669
      ],
      "min": [
        0.10993000119924545,
        0.055619999766349792
      ],
      "type": "VEC2"
    },
    {
      "bufferView": 0,
      "byteOffset": 35136,
      "componentType": 5125,
      "count": 8304,
      "max": [
        1530
      ],
      "min": [
        0
      ],
      "type": "SCALAR"
    },
    {
      "bufferView": 2,
      "byteOffset": 76296,
      "componentType": 5126,
      "count": 1456,
      "max": [
        0.36002001166343689,
        0.89998000860214233,
        0.20174999535083771
      ],
      "min": [
        -0.38852998614311218,
        -0.54275000095367432,
        -0.22513000667095184
      ],
      "type": "VEC3"
    },
    {
      "bufferView": 2,
      "byteOffset": 93768,
      "componentType": 5126,
      "count": 1456,
      "max": [
        0.9990888237953186,
        0.99987190961837769,
        0.99992644786834717
      ],
      "min": [
        -0.99979716539382935,
        -0.99959897994995117,
        -0.99685579538345337
      ],
      "type": "VEC3"
    },
    {
      "bufferView": 3,
      "byteOffset": 50864,
      "componentType": 5126,
      "count": 1456,
      "max": [
        0.99412834644317627,
        0.71094536781311035,
        0.99875533580780029,
        1
      ],
      "min": [
        -0.99991214275360107,
        -0.99996840953826904,
        -0.99799507856369019,
        -1
      ],
      "type": "VEC4"
    },
    {
      "bufferView": 1,
      "byteOffset": 25432,
      "componentType": 5126,
      "count": 1456,
      "max": [
        0.44585999846458435,
        0.97162997722625732
      ],
      "min": [
        0.020179999992251396,
        0.62518000602722168
      ],
      "type": "VEC2"
    },
    {
      "bufferView": 0,
      "byteOffset": 68352,
      "componentType": 5125,
      "count": 6552,
      "max": [
        1455
      ],
      "min": [
        0
      ],
      "type": "SCALAR"
    },
    {
      "bufferView": 2,
      "byteOffset": 111240,
      "componentType": 5126,
      "count": 525,
      "max": [
        0.28349000215530396,
        0.34764000773429871,
        0.1718599945306778
      ],
      "min": [
        -0.28137999773025513,
        -0.34128999710083008,
        -0.1692499965429306
      ],
      "type": "VEC3"
    },
    {
      "bufferView": 2,
      "byteOffset": 117540,
      "componentType": 5126,
      "count": 525,
      "max": [
        0.99999696016311646,
        0.58112227916717529,
        0.99910980463027954
      ],
      "min": [
        -0.9903712272644043,
        -0.93649464845657349,
        -0.1864723414182663
      ],
      "type": "VEC3"
    },
    {
      "bufferView": 3,
      "byteOffset": 74160,
      "componentType": 5126,
      "count": 525,
      "max": [
        0.98449611663818359,
        0.22453625500202179,
        0.93585383892059326,
        1
      ],
      "min": [
        -0.1577688604593277,
        -0.775471031665802,
        -0.99952322244644165,
        1
      ],
      "type": "VEC4"
    },
    {
      "bufferView": 1,
      "byteOffset": 37080,
      "componentType": 5126,
      "count": 525,
      "max": [
        0.96584999561309814,
        0.39441999793052673
      ],
      "min": [
        0.69041997194290161,
        0.053950000554323196
      ],
      "type": "VEC2"
    },
    {
      "bufferView": 0,
      "byteOffset": 94560,
      "componentType": 5125,
      "count": 2520,
      "max": [
        524
      ],
      "min": [
        0
      ],
      "type": "SCALAR"
    }
  ],
  "asset": {
    "extras": {
      "author": "thomasmaherault (https://sketchfab.com/thomasmaherault)",
      "license": "CC-BY-4.0 (http://creativecommons.org/licenses/by/4.0/)",
      "source": "https://sketchfab.com/models/56e6496ad9f144169687fa32755b07f7",
      "title": "Converse Sneakers"
    },
    "generator": "Sketchfab-3.18.2",
    "version": "2.0"
  },
  "bufferViews": [
    {
      "buffer": 0,
      "byteLength": 104640,
      "byteOffset": 0,
      "name": "floatBufferViews",
      "target": 34963
    },
    {
      "buffer": 0,
      "byteLength": 41280,
      "byteOffset": 104640,
      "byteStride": 8,
      "name": "floatBufferViews",
      "target": 34962
    },
    {
      "buffer": 0,
      "byteLength": 123840,
      "byteOffset": 145920,
      "byteStride": 12,
      "name": "floatBufferViews",
      "target": 34962
    },
    {
      "buffer": 0,
      "byteLength": 82560,
      "byteOffset": 269760,
      "byteStride": 16,
      "name": "floatBufferViews",
      "target": 34962
    }
  ],
  "buffers": [
    {
      "byteLength": 352320,
      "uri": "sneakers.bin"
    }
  ],
  "images": [
    {
      "uri": "textures/Color_baseColor.png"
    },
    {
      "uri": "textures/Base_baseColor.png"
    },
    {
      "uri": "textures/Base_normal.png"
    }
  ],
  "materials": [
    {
      "doubleSided": true,
      "emissiveFactor": [
        0,
        0,
        0
      ],
      "name": "Base",
      "normalTexture": {
        "index": 2,
        "scale": 0.1000000015,
        "texCoord": 0
      },
      "pbrMetallicRoughness": {
        "baseColorFactor": [
          1,
          1,
          1,
          1
        ],
        "baseColorTexture": {
          "index": 1,
          "texCoord": 0
        },
        "metallicFactor": 0,
        "roughnessFactor": 0.59999999999999998
      }
    },
    {
      "doubleSided": true,
      "emissiveFactor": [
        0,
        0,
        0
      ],
      "name": "Color",
      "pbrMetallicRoughness": {
        "baseColorFactor": [
          1,
          1,
          1,
          1
        ],
        "baseColorTexture": {
          "index": 0,
          "texCoord": 0
        },
        "metallicFactor": 0,
        "roughnessFactor": 0.59999999999999998
      }
    }
  ],
  "meshes": [
    {
      "name": "Shoe_Base",
      "primitives": [
        {
          "attributes": {
            "NORMAL": 1,
            "POSITION": 0,
            "TANGENT": 2,
            "TEXCOORD_0": 3
          },
          "indices": 4,
          "material": 0,
          "mode": 4
        }
      ]
    },
    {
      "name": "Shoe_Base",
      "primitives": [
        {
          "attributes": {
            "NORMAL": 6,
            "POSITION": 5,
            "TANGENT": 7,
            "TEXCOORD_0": 8
          },
          "indices": 9,
          "material": 1,
          "mode": 4
        }
      ]
    },
    {
      "name": "Shoe_Metal",
      "primitives": [
        {
          "attributes": {
            "NORMAL": 11,
            "POSITION": 10,
            "TANGENT": 12,
            "TEXCOORD_0": 13
          },
          "indices": 14,
          "material": 0,
          "mode": 4
        }
      ]
    },
    {
      "name": "Shoe_Laces",
      "primitives": [
        {
          "attributes": {
            "NORMAL": 16,
            "POSITION": 15,
            "TANGENT": 17,
            "TEXCOORD_0": 18
          },
          "indices": 19,
          "material": 0,
          "mode": 4
        }
      ]
    }
  ],
  "nodes": [
    {
      "children": [
        1
      ],
      "name": "RootNode (gltf orientation matrix)",
      "rotation": [
        -0.70710678118654746,
        -0,
        -0,
        0.70710678118654757
      ]
    },
    {
      "children": [
        2
      ],
      "name": "RootNode (model correction matrix)"
    },
    {
      "children": [
        3,
        5
      ],
      "name": "Root"
    },
    {
      "children": [
        4
      ],
      "matrix": [
        0.29615000000000002,
        -0.85875000000000012,
        -0.41814000000000001,
        0,
        -0.91466000000000003,
        -0.12889,
        -0.38311000000000006,
        0,
        0.27511000000000002,
        0.49591000000000007,
        -0.82364000000000015,
        0,
        -1.4374699999999998,
        -1.6620300000000001,
        3.5383,
        1
      ],
      "name": "Hemi"
    },
    {
      "name": "Hemi"
    },
    {
      "children": [
        6,
        7,
        8,
        10
      ],
      "name": "Shoe_Base"
    },
    {
      "mesh": 0,
      "name": "Shoe_Base"
    },
    {
      "mesh": 1,
      "name": "Shoe_Base"
    },
    {
      "children": [
        9
      ],
      "matrix": [
        1,
        0,
        0,
        0,
        0,
        1,
        0,
        0,
        0,
        0,
        1,
        0,
        -0.030920000000000007,
        -0.35674,
        0.077970000000000012,
        1
      ],
      "name": "Shoe_Metal"
    },
    {
      "mesh": 2,
      "name": "Shoe_Metal"
    },
    {
      "children": [
        11
      ],
      "matrix": [
        1,
        0,
        0,
        0,
        0,
        1,
        0,
        0,
        0,
        0,
        1,
        0,
        0.033130000000000014,
        -0.56235000000000002,
        0.10326000000000002,
        1
      ],
      "name": "Shoe_Laces"
    },
    {
      "mesh": 3,
      "name": "Shoe_Laces"
    }
  ],
  "samplers": [
    {
      "magFilter": 9729,
      "minFilter": 9987,
      "wrapS": 10497,
      "wrapT": 10497
    }
  ],
  "scene": 0,
  "scenes": [
    {
      "name": "OSG_Scene",
      "nodes": [
        0
      ]
    }
  ],
  "textures": [
    {
      "sampler": 0,
      "source": 0
    },
    {
      "sampler": 0,
      "source": 1
    },
    {
      "sampler": 0,
      "source": 2
    }
  ]
}

